# File created by Blade
# Date/Time:  Tue Apr 07 20:53:11 2015
# Frame Rate: 120.000 fps
#------------------------------------------------------
:FULLY-SPECIFIED
:DEGREES
1125
root -0.373956 33.339634 3.188023 12.019621 -0.880564 -359.818846
Spine -11.084047 -7.927696 -3.213010
Head 8.460178 -5.692886 2.506122
LeftShoulder -18.783506 40.022483 22.034349
LeftArm 60.806257 -49.096524 -65.793154
LeftForeArm 8.105638 -0.000000 -0.774869
LeftHand 5.938277 0.000000 9.261117
LeftHandThumb1 -26.253704 0.000000 33.147579
RightShoulder -8.857876 1.740892 -28.063282
RightArm 12.189076 15.715083 47.497449
RightForeArm -14.319501 -0.000000 0.612739
RightHand 3.981847 0.000000 -0.955582
RightHandThumb1 -24.326973 -0.000000 -32.862282
LeftUpLeg -18.646235 -21.442191 5.470202
LeftLeg 10.201986 -0.000000 -0.000000
LeftFoot -0.821415 3.634626 -9.131910
LeftToeBase -13.098636 -0.000000 0.000000
RightUpLeg -10.932960 -4.528835 -5.557912
RightLeg 12.758900 -0.000000 -0.000000
RightFoot -4.118293 -8.092877 8.789279
RightToeBase -14.430367 -0.000000 0.000000
1126
root -0.521810 33.336582 3.132957 12.133805 -0.420459 -359.592270
Spine -11.203938 -7.920692 -3.548731
Head 8.638880 -5.890022 2.539637
LeftShoulder -18.617205 39.815042 22.261788
LeftArm 60.814383 -49.286321 -65.478352
LeftForeArm 8.232716 -0.000000 -0.826868
LeftHand 5.689313 -0.000000 8.916987
LeftHandThumb1 -26.253704 0.000000 33.147579
RightShoulder -8.955033 1.811866 -28.088464
RightArm 12.029110 16.233893 47.451419
RightForeArm -14.421779 -0.000000 0.521446
RightHand 3.949064 -0.000000 -1.039899
RightHandThumb1 -24.326973 -0.000000 -32.862282
LeftUpLeg -18.838742 -21.142508 5.236141
LeftLeg 10.455471 -0.000000 -0.000000
LeftFoot -1.366644 4.516909 -9.653547
LeftToeBase -12.864566 -0.000000 0.000000
RightUpLeg -10.566106 -4.745238 -5.411029
RightLeg 11.824513 -0.000000 -0.000000
RightFoot -4.341092 -8.507809 8.804077
RightToeBase -13.557865 -0.000000 0.000000
1127
root -0.659759 33.332717 3.081361 12.222864 -0.090486 -359.353100
Spine -11.312652 -7.804417 -3.895196
Head 8.825031 -6.017960 2.509651
LeftShoulder -18.455493 39.611992 22.440379
LeftArm 60.945115 -49.557843 -65.327115
LeftForeArm 8.168964 -0.000000 -0.898995
LeftHand 5.689638 -0.000000 8.706683
LeftHandThumb1 -26.253704 0.000000 33.147579
RightShoulder -9.040987 1.967924 -28.153745
RightArm 11.754485 16.571053 47.351695
RightForeArm -14.495328 0.000000 0.541882
RightHand 3.824925 -0.000000 -0.970954
RightHandThumb1 -24.326973 -0.000000 -32.862282
LeftUpLeg -18.907892 -20.650015 4.876279
LeftLeg 10.642674 -0.000000 -0.000000
LeftFoot -1.888946 5.600950 -10.237917
LeftToeBase -13.054055 -0.000000 0.000000
RightUpLeg -10.225979 -4.856619 -5.345067
RightLeg 10.953895 -0.000000 -0.000000
RightFoot -4.511716 -8.791914 8.769663
RightToeBase -13.089057 -0.000000 0.000000
1128
root -0.789474 33.326455 3.027703 12.293997 0.137730 -359.114733
Spine -11.402598 -7.637754 -4.240350
Head 9.012301 -6.121877 2.480610
LeftShoulder -18.312696 39.350954 22.624741
LeftArm 60.909713 -49.779718 -65.097259
LeftForeArm 8.150241 -0.000000 -0.923530
LeftHand 5.605573 -0.000000 8.472747
LeftHandThumb1 -26.253704 0.000000 33.147579
RightShoulder -9.120171 2.090808 -28.236859
RightArm 11.586091 16.900886 47.292843
RightForeArm -14.630104 0.000000 0.530731
RightHand 3.600782 -0.000000 -1.079725
RightHandThumb1 -24.326973 -0.000000 -32.862282
LeftUpLeg -18.938477 -20.191548 4.479593
LeftLeg 10.862638 -0.000000 -0.000000
LeftFoot -2.653031 7.077567 -11.373144
LeftToeBase -13.162803 -0.000000 0.000000
RightUpLeg -9.976802 -4.838997 -5.336340
RightLeg 10.264926 -0.000000 -0.000000
RightFoot -4.722519 -9.030938 8.743345
RightToeBase -12.778371 -0.000000 0.000000
1129
root -0.908011 33.318277 2.975780 12.298970 0.316752 -358.873606
Spine -11.416425 -7.480922 -4.562753
Head 9.178100 -6.167046 2.385778
LeftShoulder -18.266460 39.169183 22.680836
LeftArm 61.034607 -50.037714 -64.986055
LeftForeArm 8.257541 0.000000 -1.018070
LeftHand 5.623258 0.000000 8.478125
LeftHandThumb1 -26.253704 0.000000 33.147579
RightShoulder -9.126931 2.246599 -28.322680
RightArm 11.416827 17.173148 47.182750
RightForeArm -14.729982 -0.000000 0.498278
RightHand 3.553789 -0.000000 -0.985859
RightHandThumb1 -24.326973 -0.000000 -32.862282
LeftUpLeg -18.879936 -19.662375 3.985980
LeftLeg 11.165400 -0.000000 -0.000000
LeftFoot -3.676037 8.634068 -12.663590
LeftToeBase -13.119613 -0.000000 0.000000
RightUpLeg -9.741399 -4.888865 -5.377328
RightLeg 9.723651 -0.000000 -0.000000
RightFoot -4.895246 -9.004660 8.613695
RightToeBase -12.332370 -0.000000 0.000000
1130
root -1.020093 33.308237 2.923711 12.305210 0.415427 -358.670652
Spine -11.442930 -7.250829 -4.835185
Head 9.333732 -6.184053 2.237403
LeftShoulder -18.205537 38.952881 22.732094
LeftArm 61.060401 -50.263093 -64.792931
LeftForeArm 8.337397 -0.000000 -1.131401
LeftHand 5.634358 -0.000000 8.556146
LeftHandThumb1 -26.253704 0.000000 33.147579
RightShoulder -9.150641 2.416253 -28.455008
RightArm 11.300082 17.188679 47.041446
RightForeArm -14.839878 0.000000 0.360905
RightHand 3.571863 -0.000000 -0.809139
RightHandThumb1 -24.326973 -0.000000 -32.862282
LeftUpLeg -18.838222 -18.987258 3.415420
LeftLeg 11.659541 -0.000000 -0.000000
LeftFoot -4.773558 10.126788 -13.741701
LeftToeBase -13.679308 -0.000000 0.000000
RightUpLeg -9.586656 -4.841225 -5.423664
RightLeg 9.315906 -0.000000 -0.000000
RightFoot -5.081830 -8.905195 8.481699
RightToeBase -11.930382 -0.000000 0.000000
1131
root -1.136054 33.297765 2.868271 12.333756 0.481716 -358.548038
Spine -11.490109 -7.059619 -5.027419
Head 9.472813 -6.163697 2.134326
LeftShoulder -18.238498 38.736361 22.732920
LeftArm 60.993656 -50.439691 -64.492479
LeftForeArm 8.439384 0.000000 -1.245034
LeftHand 5.679025 -0.000000 8.563313
LeftHandThumb1 -26.253704 0.000000 33.147579
RightShoulder -9.114988 2.527658 -28.574754
RightArm 11.229277 17.261670 46.967868
RightForeArm -14.820152 -0.000000 0.316513
RightHand 3.501669 0.000000 -0.708396
RightHandThumb1 -24.326973 -0.000000 -32.862282
LeftUpLeg -19.109052 -17.581543 2.711985
LeftLeg 13.002496 -0.000000 -0.000000
LeftFoot -6.041839 10.983660 -14.059980
LeftToeBase -13.169021 -0.000000 0.000000
RightUpLeg -9.563084 -4.862758 -5.378760
RightLeg 9.091475 -0.000000 -0.000000
RightFoot -5.205707 -8.684878 8.113894
RightToeBase -11.738652 -0.000000 0.000000
1132
root -1.246922 33.286955 2.812214 12.321422 0.537554 -358.434910
Spine -11.489028 -6.873396 -5.204956
Head 9.619781 -6.119644 1.988321
LeftShoulder -18.280344 38.601097 22.704500
LeftArm 61.027689 -50.667042 -64.319419
LeftForeArm 8.473033 0.000000 -1.292387
LeftHand 5.568231 0.000000 8.582693
LeftHandThumb1 -26.253704 0.000000 33.147579
RightShoulder -9.083606 2.610883 -28.715215
RightArm 11.207929 17.298029 46.937466
RightForeArm -14.717829 -0.000000 0.250619
RightHand 3.288805 -0.000000 -0.939680
RightHandThumb1 -24.326973 -0.000000 -32.862282
LeftUpLeg -19.367604 -16.289209 2.016099
LeftLeg 14.523081 -0.000000 -0.000000
LeftFoot -7.290092 11.724736 -14.084430
LeftToeBase -12.848902 -0.000000 0.000000
RightUpLeg -9.516382 -4.820597 -5.346201
RightLeg 8.891068 -0.000000 -0.000000
RightFoot -5.370498 -8.503875 7.927724
RightToeBase -11.828177 -0.000000 0.000000
1133
root -1.340285 33.275547 2.763711 12.263358 0.544387 -358.264612
Spine -11.465250 -6.736607 -5.392389
Head 9.764725 -5.963622 1.791083
LeftShoulder -18.426197 38.534622 22.575272
LeftArm 61.263900 -50.950677 -64.411201
LeftForeArm 8.682772 0.000000 -1.375486
LeftHand 5.567979 0.000000 8.638216
LeftHandThumb1 -26.253704 0.000000 33.147579
RightShoulder -8.971793 2.714934 -28.866213
RightArm 11.195428 17.343465 46.887354
RightForeArm -14.547617 0.000000 0.208779
RightHand 3.244948 -0.000000 -0.961514
RightHandThumb1 -24.326973 -0.000000 -32.862282
LeftUpLeg -19.366402 -15.492540 1.382155
LeftLeg 15.688735 -0.000000 -0.000000
LeftFoot -8.529695 12.362712 -14.444720
LeftToeBase -12.280024 -0.000000 0.000000
RightUpLeg -9.443777 -4.792531 -5.418058
RightLeg 8.772331 -0.000000 -0.000000
RightFoot -5.583538 -8.255924 7.793606
RightToeBase -12.003451 -0.000000 0.000000
